<svg width="109" height="24" viewBox="0 0 109 24" fill="none" xmlns="http://www.w3.org/2000/svg">
<path d="M7.776 23L0.512 0.599998H7.04L13.152 19.992H9.856L16.288 0.599998H22.112L28.192 19.992H25.024L31.328 0.599998H37.376L30.112 23H23.328L18.144 6.52H19.968L14.56 23H7.776ZM36.177 23L46.065 0.599998H52.305L62.225 23H55.633L47.889 3.704H50.385L42.641 23H36.177ZM41.585 18.648L43.217 13.976H54.161L55.793 18.648H41.585ZM74.8768 23.448C73.1061 23.448 71.4634 23.1707 69.9488 22.616C68.4554 22.04 67.1541 21.2293 66.0448 20.184C64.9568 19.1387 64.1034 17.912 63.4848 16.504C62.8661 15.0747 62.5568 13.5067 62.5568 11.8C62.5568 10.0933 62.8661 8.536 63.4848 7.128C64.1034 5.69867 64.9568 4.46133 66.0448 3.416C67.1541 2.37067 68.4554 1.57067 69.9488 1.016C71.4634 0.439999 73.1061 0.151999 74.8768 0.151999C76.9461 0.151999 78.7914 0.514666 80.4128 1.24C82.0554 1.96533 83.4208 3.01067 84.5088 4.376L80.4768 8.024C79.7514 7.17067 78.9514 6.52 78.0768 6.072C77.2234 5.624 76.2634 5.4 75.1968 5.4C74.2794 5.4 73.4368 5.54933 72.6688 5.848C71.9008 6.14667 71.2394 6.584 70.6848 7.16C70.1514 7.71467 69.7248 8.38667 69.4048 9.176C69.1061 9.96533 68.9568 10.84 68.9568 11.8C68.9568 12.76 69.1061 13.6347 69.4048 14.424C69.7248 15.2133 70.1514 15.896 70.6848 16.472C71.2394 17.0267 71.9008 17.4533 72.6688 17.752C73.4368 18.0507 74.2794 18.2 75.1968 18.2C76.2634 18.2 77.2234 17.976 78.0768 17.528C78.9514 17.08 79.7514 16.4293 80.4768 15.576L84.5088 19.224C83.4208 20.568 82.0554 21.6133 80.4128 22.36C78.7914 23.0853 76.9461 23.448 74.8768 23.448ZM102.31 0.599998H108.646V23H102.31V0.599998ZM93.6698 23H87.3338V0.599998H93.6698V23ZM102.758 14.264H93.2218V9.016H102.758V14.264Z" fill="white"/>
</svg>
